<svg xmlns="http://www.w3.org/2000/svg" xmlns:xlink="http://www.w3.org/1999/xlink" viewBox="0 0 64 64"><defs><style>.cls-1{fill:none;}.cls-2{isolation:isolate;}.cls-3{clip-path:url(#clip-path);}.cls-4{opacity:0.33;}.cls-5{clip-path:url(#clip-path-2);}.cls-22,.cls-25,.cls-6{mix-blend-mode:multiply;}.cls-7{clip-path:url(#clip-path-5);}.cls-8{fill:#557888;}.cls-9{clip-path:url(#clip-path-6);}.cls-10{clip-path:url(#clip-path-7);}.cls-11{clip-path:url(#clip-path-8);}.cls-12{clip-path:url(#clip-path-9);}.cls-13{clip-path:url(#clip-path-10);}.cls-14{clip-path:url(#clip-path-11);}.cls-15{clip-path:url(#clip-path-12);}.cls-16{clip-path:url(#clip-path-13);}.cls-17{clip-path:url(#clip-path-14);}.cls-18{clip-path:url(#clip-path-15);}.cls-19{clip-path:url(#clip-path-16);}.cls-20{clip-path:url(#clip-path-17);}.cls-21{clip-path:url(#clip-path-18);}.cls-22{opacity:0.65;}.cls-23{clip-path:url(#clip-path-19);}.cls-24{clip-path:url(#clip-path-21);}.cls-25{opacity:0.6;}.cls-26{clip-path:url(#clip-path-22);}</style><clipPath id="clip-path"><rect class="cls-1" x="9.1" y="11.16" width="50.44" height="34.06"/></clipPath><clipPath id="clip-path-2"><rect class="cls-1" x="9.09" y="11.16" width="50.44" height="34.06"/></clipPath><clipPath id="clip-path-5"><rect class="cls-1" x="9.1" y="11.16" width="50.44" height="34.06"/></clipPath><clipPath id="clip-path-6"><rect class="cls-1" x="9.1" y="18.77" width="50.44" height="34.06"/></clipPath><clipPath id="clip-path-7"><rect class="cls-1" x="9.1" y="18.77" width="50.44" height="34.06"/></clipPath><clipPath id="clip-path-8"><rect class="cls-1" x="9.1" y="18.77" width="50.44" height="34.06"/></clipPath><clipPath id="clip-path-9"><rect class="cls-1" x="20.44" y="5.55" width="23.12" height="56.45"/></clipPath><clipPath id="clip-path-10"><rect class="cls-1" x="20.44" y="5.55" width="23.12" height="56.45"/></clipPath><clipPath id="clip-path-11"><rect class="cls-1" x="20.44" y="5.55" width="23.12" height="56.45"/></clipPath><clipPath id="clip-path-12"><rect class="cls-1" x="4.47" y="18.77" width="50.44" height="34.06"/></clipPath><clipPath id="clip-path-13"><rect class="cls-1" x="4.47" y="18.77" width="50.44" height="34.06"/></clipPath><clipPath id="clip-path-14"><rect class="cls-1" x="4.47" y="18.77" width="50.44" height="34.06"/></clipPath><clipPath id="clip-path-15"><rect class="cls-1" x="4.46" y="11.16" width="50.44" height="34.06"/></clipPath><clipPath id="clip-path-16"><rect class="cls-1" x="4.46" y="11.16" width="50.45" height="34.06"/></clipPath><clipPath id="clip-path-17"><rect class="cls-1" x="4.46" y="11.16" width="50.44" height="34.06"/></clipPath><clipPath id="clip-path-18"><rect class="cls-1" x="20.44" y="2" width="23.12" height="56.45"/></clipPath><clipPath id="clip-path-19"><rect class="cls-1" x="20.44" y="2" width="23.12" height="56.45"/></clipPath><clipPath id="clip-path-21"><rect class="cls-1" x="20.44" y="2" width="23.12" height="56.45"/></clipPath><clipPath id="clip-path-22"><rect class="cls-1" x="20.44" y="2" width="23.12" height="56.45"/></clipPath></defs><g class="cls-2"><g id="favicon"><g id="Layer_8" data-name="Layer 8"><g id="junos_burst" data-name="junos burst"><g class="cls-3"><g class="cls-4"><g class="cls-5"><g class="cls-3"><g class="cls-6"><g class="cls-5"><g class="cls-7"><path class="cls-8" d="M46,11.31A11.67,11.67,0,0,1,56.94,30.19c-2.59,3.2-6.56,4-10.33,5L31.42,39.23l-22.32,6L25.45,28.88,36.57,17.76C39.33,15,42,11.94,46,11.31"/></g></g></g></g></g></g></g><g class="cls-9"><g class="cls-4"><g class="cls-10"><g class="cls-11"><path class="cls-8" d="M56.94,33.8A11.68,11.68,0,0,1,46,52.69c-4.06-.64-6.7-3.7-9.46-6.46Q31,40.68,25.45,35.11L9.1,18.77l22.32,6,15.19,4.08c3.77,1,7.74,1.77,10.33,5"/></g></g></g></g><g class="cls-12"><g class="cls-4"><g class="cls-13"><g class="cls-14"><path class="cls-8" d="M42.9,54.49a11.67,11.67,0,0,1-21.8,0c-1.48-3.83-.15-7.65.86-11.42Q24,35.48,26,27.88q3-11.16,6-22.33l6,22.33L42,43.07c1,3.77,2.34,7.59.86,11.42"/></g></g></g></g><g class="cls-15"><g class="cls-4"><g class="cls-16"><g class="cls-17"><path class="cls-8" d="M18,52.69A11.67,11.67,0,0,1,7.07,33.8c2.58-3.19,6.56-3.95,10.32-5l15.19-4.08,22.32-6q-8.16,8.18-16.35,16.34Q33,40.67,27.43,46.23C24.68,49,22,52.05,18,52.69"/></g></g></g></g><g class="cls-18"><g class="cls-4"><g class="cls-19"><g class="cls-20"><path class="cls-8" d="M7.07,30.19A11.67,11.67,0,0,1,18,11.31c4.06.63,6.71,3.7,9.46,6.45L38.55,28.88,54.91,45.22l-22.33-6L17.39,35.16c-3.77-1-7.74-1.77-10.32-5"/></g></g></g></g><g class="cls-24"><g class="cls-25"><g class="cls-26"><g class="cls-24"><path class="cls-8" d="M21.1,9.5a11.67,11.67,0,0,1,21.8,0c1.48,3.83.15,7.66-.86,11.42L38,36.11q-3,11.18-6,22.34-3-11.18-6-22.34Q24,28.52,22,20.92c-1-3.76-2.34-7.59-.86-11.42"/></g></g></g></g></g></g></g></g></svg>